{"title":"Ratatouille 2007 DVDRip Xvid BigPerm LKRG","uid":6611431,"size":789190526,"categoryP":"video","categoryS":"movies","magnet":"?xt=urn:btih:ef0997382266bb1c81fe6a67e639caea8e1e382c&amp;dn=Ratatouille+2007+DVDRip+Xvid+BigPerm+LKRG&amp;tr=udp%3A%2F%2Ftracker.openbittorrent.com%3A80&amp;tr=udp%3A%2F%2Fopen.demonii.com%3A1337&amp;tr=udp%3A%2F%2Ftracker.coppersurfer.tk%3A6969&amp;tr=udp%3A%2F%2Fexodus.desync.com%3A6969","seeders":5,"leechers":1,"uploader":".BONE.","files":2,"time":1313606721,"description":"\nPLOT\n\nRemy is a young rat in the French countryside who arrives in Paris, only to find out that\nhis cooking idol is dead. When he makes an unusual alliance with a restaurant's new garbage\nboy, the culinary and personal adventures begin despite Remy's family's skepticism and the\nrat-hating world of humans.\n\n &lt;a href=&quot;\nhttp://www.imdb.com/title/tt0382932/&quot; rel=&quot;nofollow&quot; target=&quot;_NEW&quot;&gt;\nhttp://www.imdb.com/title/tt0382932/&lt;/a&gt;\n\nEncoded By .........: BigPerm1828\nRuntime ..........: 1h 50mn\nFile Size ........: 753 MiB\nResolution .......: 704 x 396\nIMDb URL .........: http://www.imdb.com/title/tt0382932/\nGenre ............: Animation | Comedy | Family\nLanguage .........: English\nVideo\nID : 0\nFormat : MPEG-4 Visual\nFormat profile : Advanced Simple@L5\nFormat settings, BVOP : Yes\nFormat settings, QPel : No\nFormat settings, GMC : No warppoints\nFormat settings, Matrix : Default (H.263)\nCodec ID : XVID\nCodec ID/Hint : XviD\nDuration : 1h 50mn\nBit rate : 500 Kbps\nWidth : 704 pixels\nHeight : 396 pixels\nDisplay aspect ratio : 16:9\nFrame rate : 23.976 fps\nColor space : YUV\nChroma subsampling : 4:2:0\nBit depth : 8 bits\nScan type : Progressive\nCompression mode : Lossy\nBits/(Pixel*Frame) : 0.075\nStream size : 395 MiB (52%)\nWriting library : XviD 1.2.1 (UTC 2008-12-04)\n\nAudio\nID : 1\nFormat : AC-3\nFormat/Info : Audio Coding 3\nMode extension : CM (complete main)\nCodec ID : 2000\nDuration : 1h 50mn\nBit rate mode : Constant\nBit rate : 448 Kbps\nChannel(s) : 6 channels\nChannel positions : Front: L C R, Side: L R, LFE\nSampling rate : 48.0 KHz\nBit depth : 16 bits\nCompression mode : Lossy\nVideo delay : 42ms\nStream size : 354 MiB (47%)\nAlignment : Split accross interleaves\nInterleave, duration : 500 ms (11.99 video frames)\nInterleave, preload duration : 500 ms\n &lt;a href=&quot;\nhttp://leetleech.org/images/19232836182477304529.png&quot; rel=&quot;nofollow&quot; target=&quot;_NEW&quot;&gt;\nhttp://leetleech.org/images/19232836182477304529.png&lt;/a&gt;\n &lt;a href=&quot;\nhttp://leetleech.org/images/03721523558988688610.png&quot; rel=&quot;nofollow&quot; target=&quot;_NEW&quot;&gt;\nhttp://leetleech.org/images/03721523558988688610.png&lt;/a&gt;\n &lt;a href=&quot;\nhttp://leetleech.org/images/55064052364945744629.png&quot; rel=&quot;nofollow&quot; target=&quot;_NEW&quot;&gt;\nhttp://leetleech.org/images/55064052364945744629.png&lt;/a&gt;\n &lt;a href=&quot;\nhttp://leetleech.org/images/13497027935791040378.png&quot; rel=&quot;nofollow&quot; target=&quot;_NEW&quot;&gt;\nhttp://leetleech.org/images/13497027935791040378.png&lt;/a&gt;","torrent":{"xt":"urn:btih:ef0997382266bb1c81fe6a67e639caea8e1e382c","amp;dn":"Ratatouille+2007+DVDRip+Xvid+BigPerm+LKRG","amp;tr":["udp%3A%2F%2Ftracker.openbittorrent.com%3A80","udp%3A%2F%2Fopen.demonii.com%3A1337","udp%3A%2F%2Ftracker.coppersurfer.tk%3A6969","udp%3A%2F%2Fexodus.desync.com%3A6969"],"infoHash":"ef0997382266bb1c81fe6a67e639caea8e1e382c","infoHashBuffer":{"type":"Buffer","data":[239,9,151,56,34,102,187,28,129,254,106,103,230,57,202,234,142,30,56,44]},"announce":[],"urlList":[]}}